<?xml version="1.0" encoding="UTF-8"?>
<svg viewBox="0 0 1000 376" xmlns="http://www.w3.org/2000/svg">
      <defs>
        <style>@import url('https://fonts.googleapis.com/css2?family=Instrument+Serif:ital@0;1&amp;family=Geist:wght@400;500;600&amp;family=Geist+Mono:wght@400;500;600&amp;display=swap');</style>
        
        <marker id="arrow" markerWidth="8" markerHeight="6" refX="7" refY="3" orient="auto"><polygon points="0 0, 8 3, 0 6" fill="#4f5d75"/></marker>
        <marker id="arrow-accent" markerWidth="8" markerHeight="6" refX="7" refY="3" orient="auto"><polygon points="0 0, 8 3, 0 6" fill="#eb6c36"/></marker>
        <marker id="arrow-link" markerWidth="8" markerHeight="6" refX="7" refY="3" orient="auto"><polygon points="0 0, 8 3, 0 6" fill="#2e5aa8"/></marker>
      </defs>

      <rect width="100%" height="100%" fill="#f5f5f5"/>

      <g transform="translate(0,-84)">
      <!-- Zone: compile on x86 host -->
      <rect x="40" y="116" width="556" height="252" rx="8"
            fill="rgba(45,49,66,0.02)" stroke="rgba(45,49,66,0.10)" stroke-width="0.8"/>
      <rect x="56" y="120" width="196" height="12" rx="2" fill="#f5f5f5"/>
      <text x="154" y="129" fill="rgba(45,49,66,0.40)" font-size="7" font-family="'Geist Mono', monospace"
            text-anchor="middle" letter-spacing="0.14em">COMPILE · X86 HOST — NO TPU REQUIRED</text>

      <!-- Zone: deploy on TPU device -->
      <rect x="636" y="116" width="324" height="252" rx="8"
            fill="rgba(45,49,66,0.02)" stroke="rgba(45,49,66,0.10)" stroke-width="0.8"/>
      <rect x="652" y="120" width="176" height="12" rx="2" fill="#f5f5f5"/>
      <text x="740" y="129" fill="rgba(45,49,66,0.40)" font-size="7" font-family="'Geist Mono', monospace"
            text-anchor="middle" letter-spacing="0.14em">DEPLOY · TPU DEVICE — PCIE / SOC</text>

      <!-- Arrows first (behind boxes) -->
      <line x1="216" y1="228" x2="280" y2="228" stroke="#eb6c36" stroke-width="1.4" marker-end="url(#arrow-accent)"/>
      <line x1="440" y1="228" x2="472" y2="228" stroke="#4f5d75" stroke-width="1.2" marker-end="url(#arrow)"/>
      <path d="M 584,228 H 620 Q 628,228 628,220 V 196 Q 628,188 636,188 H 672"
            fill="none" stroke="#4f5d75" stroke-width="1.2" marker-end="url(#arrow)"/>
      <line x1="744" y1="220" x2="744" y2="272" stroke="#4f5d75" stroke-width="1.2" marker-end="url(#arrow)"/>
      <!-- Dashed alternative: skip compile, download a pre-compiled bmodel -->
      <line x1="528" y1="300" x2="528" y2="264" stroke="#4f5d75" stroke-width="1" stroke-dasharray="4,3" marker-end="url(#arrow)"/>

      <!-- Arrow labels (mask bottom sits 10px above the stroke) -->
      <rect x="214" y="206" width="68" height="12" rx="2" fill="#f5f5f5"/>
      <text x="248" y="215" fill="#eb6c36" font-size="8" font-family="'Geist Mono', monospace" text-anchor="middle" letter-spacing="0.08em">ONE COMMAND</text>

      <rect x="754" y="240" width="72" height="12" rx="2" fill="#f5f5f5"/>
      <text x="790" y="249" fill="#4f5d75" font-size="8" font-family="'Geist Mono', monospace" text-anchor="middle" letter-spacing="0.08em">BMRT · BMLIB</text>

      <rect x="538" y="274" width="68" height="12" rx="2" fill="#f5f5f5"/>
      <text x="572" y="283" fill="#4f5d75" font-size="8" font-family="'Geist Mono', monospace" text-anchor="middle" letter-spacing="0.08em">OR DOWNLOAD</text>

      <!-- Node: Model Weights (external) -->
      <rect x="72" y="196" width="144" height="64" rx="6" fill="#f5f5f5"/>
      <rect x="72" y="196" width="144" height="64" rx="6" fill="rgba(45,49,66,0.03)" stroke="rgba(45,49,66,0.30)" stroke-width="1"/>
      <rect x="80" y="204" width="28" height="12" rx="2" fill="transparent" stroke="rgba(45,49,66,0.22)" stroke-width="0.8"/>
      <text x="94" y="213" fill="#7a8399" font-size="7" font-family="'Geist Mono', monospace" text-anchor="middle" letter-spacing="0.08em">EXT</text>
      <text x="208" y="256" fill="rgba(45,49,66,0.06)" font-size="32" font-weight="600" font-family="'Geist Mono', monospace" text-anchor="end">01</text>
      <text x="144" y="232" fill="#2d3142" font-size="12" font-weight="600" font-family="'Geist', sans-serif" text-anchor="middle">Model Weights</text>
      <text x="144" y="248" fill="#4f5d75" font-size="9" font-family="'Geist Mono', monospace" text-anchor="middle">HuggingFace · GGUF</text>

      <!-- Node: llm_convert.py (focal) -->
      <rect x="280" y="196" width="160" height="64" rx="6" fill="#f5f5f5"/>
      <rect x="280" y="196" width="160" height="64" rx="6" fill="rgba(235,108,54,0.08)" stroke="#eb6c36" stroke-width="1"/>
      <rect x="288" y="204" width="32" height="12" rx="2" fill="transparent" stroke="rgba(235,108,54,0.50)" stroke-width="0.8"/>
      <text x="304" y="213" fill="#eb6c36" font-size="7" font-family="'Geist Mono', monospace" text-anchor="middle" letter-spacing="0.08em">TOOL</text>
      <text x="432" y="256" fill="rgba(235,108,54,0.10)" font-size="32" font-weight="600" font-family="'Geist Mono', monospace" text-anchor="end">02</text>
      <text x="360" y="232" fill="#2d3142" font-size="12" font-weight="600" font-family="'Geist', sans-serif" text-anchor="middle">llm_convert.py</text>
      <text x="360" y="248" fill="#4f5d75" font-size="9" font-family="'Geist Mono', monospace" text-anchor="middle">tpu-mlir · quantize</text>

      <!-- Node: bmodel + config (store) -->
      <rect x="472" y="196" width="112" height="64" rx="6" fill="#f5f5f5"/>
      <rect x="472" y="196" width="112" height="64" rx="6" fill="rgba(45,49,66,0.05)" stroke="#4f5d75" stroke-width="1"/>
      <rect x="480" y="204" width="28" height="12" rx="2" fill="transparent" stroke="rgba(79,93,117,0.50)" stroke-width="0.8"/>
      <text x="494" y="213" fill="#4f5d75" font-size="7" font-family="'Geist Mono', monospace" text-anchor="middle" letter-spacing="0.08em">ART</text>
      <text x="576" y="256" fill="rgba(45,49,66,0.06)" font-size="32" font-weight="600" font-family="'Geist Mono', monospace" text-anchor="end">03</text>
      <text x="528" y="232" fill="#2d3142" font-size="12" font-weight="600" font-family="'Geist', sans-serif" text-anchor="middle">bmodel</text>
      <text x="528" y="248" fill="#4f5d75" font-size="9" font-family="'Geist Mono', monospace" text-anchor="middle">+ config/ · int4</text>

      <!-- Node: Pre-compiled bmodels (external, alternative path) -->
      <rect x="464" y="300" width="128" height="48" rx="6" fill="#f5f5f5"/>
      <rect x="464" y="300" width="128" height="48" rx="6" fill="rgba(45,49,66,0.03)" stroke="rgba(45,49,66,0.30)" stroke-width="1"/>
      <text x="528" y="322" fill="#2d3142" font-size="12" font-weight="600" font-family="'Geist', sans-serif" text-anchor="middle">Pre-compiled</text>
      <text x="528" y="336" fill="#4f5d75" font-size="9" font-family="'Geist Mono', monospace" text-anchor="middle">dfss download</text>

      <!-- Node: Runtime Demo (backend) -->
      <rect x="672" y="156" width="144" height="64" rx="6" fill="#f5f5f5"/>
      <rect x="672" y="156" width="144" height="64" rx="6" fill="#ffffff" stroke="#2d3142" stroke-width="1"/>
      <rect x="680" y="164" width="32" height="12" rx="2" fill="transparent" stroke="rgba(45,49,66,0.40)" stroke-width="0.8"/>
      <text x="696" y="173" fill="#2d3142" font-size="7" font-family="'Geist Mono', monospace" text-anchor="middle" letter-spacing="0.08em">DEMO</text>
      <text x="808" y="216" fill="rgba(45,49,66,0.06)" font-size="32" font-weight="600" font-family="'Geist Mono', monospace" text-anchor="end">04</text>
      <text x="744" y="192" fill="#2d3142" font-size="12" font-weight="600" font-family="'Geist', sans-serif" text-anchor="middle">Runtime Demo</text>
      <text x="744" y="208" fill="#4f5d75" font-size="9" font-family="'Geist Mono', monospace" text-anchor="middle">pipeline.py · chat.cpp</text>

      <!-- Node: SOPHGO TPU (focal) -->
      <rect x="672" y="272" width="144" height="64" rx="6" fill="#f5f5f5"/>
      <rect x="672" y="272" width="144" height="64" rx="6" fill="rgba(235,108,54,0.08)" stroke="#eb6c36" stroke-width="1"/>
      <rect x="680" y="280" width="28" height="12" rx="2" fill="transparent" stroke="rgba(235,108,54,0.50)" stroke-width="0.8"/>
      <text x="694" y="289" fill="#eb6c36" font-size="7" font-family="'Geist Mono', monospace" text-anchor="middle" letter-spacing="0.08em">TPU</text>
      <text x="808" y="332" fill="rgba(235,108,54,0.10)" font-size="32" font-weight="600" font-family="'Geist Mono', monospace" text-anchor="end">05</text>
      <text x="744" y="308" fill="#2d3142" font-size="12" font-weight="600" font-family="'Geist', sans-serif" text-anchor="middle">SOPHGO TPU</text>
      <text x="744" y="324" fill="#4f5d75" font-size="9" font-family="'Geist Mono', monospace" text-anchor="middle">BM1684X · 1688 · CV186X</text>

      <!-- Legend strip -->
      <line x1="40" y1="396" x2="960" y2="396" stroke="rgba(45,49,66,0.10)" stroke-width="0.8"/>
      <text x="40" y="412" fill="#4f5d75" font-size="8" font-family="'Geist Mono', monospace" letter-spacing="0.18em">LEGEND</text>

      <rect x="40" y="424" width="14" height="10" rx="2" fill="rgba(235,108,54,0.08)" stroke="#eb6c36" stroke-width="1"/>
      <text x="62" y="433" fill="#4f5d75" font-size="8.5" font-family="'Geist', sans-serif">Focal</text>

      <rect x="128" y="424" width="14" height="10" rx="2" fill="rgba(45,49,66,0.03)" stroke="rgba(45,49,66,0.30)" stroke-width="1"/>
      <text x="150" y="433" fill="#4f5d75" font-size="8.5" font-family="'Geist', sans-serif">External</text>

      <rect x="228" y="424" width="14" height="10" rx="2" fill="#ffffff" stroke="#2d3142" stroke-width="1"/>
      <text x="250" y="433" fill="#4f5d75" font-size="8.5" font-family="'Geist', sans-serif">Backend</text>

      <rect x="332" y="424" width="14" height="10" rx="2" fill="rgba(45,49,66,0.05)" stroke="#4f5d75" stroke-width="1"/>
      <text x="354" y="433" fill="#4f5d75" font-size="8.5" font-family="'Geist', sans-serif">Store</text>

      <line x1="428" y1="429" x2="456" y2="429" stroke="#eb6c36" stroke-width="1.4" marker-end="url(#arrow-accent)"/>
      <text x="464" y="433" fill="#4f5d75" font-size="8.5" font-family="'Geist', sans-serif">Primary flow</text>

      <line x1="596" y1="429" x2="624" y2="429" stroke="#4f5d75" stroke-width="1" stroke-dasharray="4,3" marker-end="url(#arrow)"/>
      <text x="632" y="433" fill="#4f5d75" font-size="8.5" font-family="'Geist', sans-serif">Alternative path</text>
      </g>
    </svg>